<?xml version="1.0" standalone="no"?>
<!DOCTYPE svg PUBLIC "-//W3C//DTD SVG 20010904//EN"
 "http://www.w3.org/TR/2001/REC-SVG-20010904/DTD/svg10.dtd">
<svg version="1.0" xmlns="http://www.w3.org/2000/svg"
 width="1417.000000pt" height="2000.000000pt" viewBox="0 0 1417.000000 2000.000000"
 preserveAspectRatio="xMidYMid meet">

<g transform="translate(0.000000,2000.000000) scale(0.100000,-0.100000)"
fill="#000000" stroke="none">
<path d="M6010 18530 c-288 -23 -449 -54 -710 -136 -80 -25 -163 -54 -185 -64
-22 -10 -92 -37 -155 -60 -63 -23 -164 -66 -225 -95 -93 -46 -121 -65 -181
-127 -139 -142 -322 -402 -354 -501 -14 -45 -40 -64 -112 -82 -192 -49 -226
-65 -373 -175 -241 -180 -486 -459 -696 -797 -251 -402 -437 -773 -509 -1016
-10 -34 -39 -127 -65 -207 -59 -187 -118 -412 -149 -573 -36 -180 -76 -457
-76 -520 0 -64 -6 -71 -135 -149 -167 -101 -260 -160 -277 -175 -10 -9 -25
-12 -37 -8 -25 8 -72 -19 -115 -64 -19 -20 -40 -31 -58 -31 -30 0 -173 35
-199 49 -38 21 -72 -3 -257 -183 -103 -100 -211 -204 -240 -231 l-53 -48 -260
-8 c-293 -9 -284 -7 -368 -93 l-44 -45 -78 1 c-43 0 -82 -3 -88 -7 -8 -4 -11
-1322 -11 -4541 l0 -4534 208 0 c341 0 1274 45 1770 85 122 10 191 11 208 5
14 -6 41 -10 59 -10 59 0 81 -17 113 -89 16 -36 35 -93 41 -126 15 -81 68
-256 194 -650 59 -181 120 -382 136 -445 16 -63 44 -155 61 -205 44 -126 51
-183 35 -301 -14 -102 -21 -137 -80 -379 -50 -206 -116 -553 -269 -1405 -30
-165 -70 -408 -92 -552 l-6 -38 3175 0 3175 0 27 118 c15 64 40 173 57 242 16
69 31 132 33 140 11 54 21 79 43 108 20 26 21 32 8 32 -20 0 -20 -2 3 101 65
290 76 331 144 519 19 52 46 131 62 175 15 43 70 166 123 272 81 163 96 202
100 251 3 45 0 68 -16 99 -25 47 -28 116 -24 453 l2 224 48 -47 c54 -53 92
-63 92 -23 0 14 -5 28 -11 31 -6 4 -8 13 -5 21 3 8 1 24 -3 36 -7 19 -3 30 26
59 41 43 55 95 43 157 -10 56 -34 89 -93 127 -49 31 -47 28 -76 150 -15 65
-23 107 -24 123 0 6 -4 12 -8 12 -6 0 -15 41 -39 176 -4 28 -20 68 -34 89 -14
20 -23 41 -20 46 9 15 -20 54 -41 55 -11 1 -29 5 -39 9 -17 8 -19 5 -13 -31 4
-21 13 -64 22 -94 8 -30 15 -77 15 -104 0 -34 9 -69 30 -112 36 -77 70 -181
75 -228 3 -39 -10 -49 -20 -15 -12 37 -14 14 -3 -30 10 -39 9 -46 -7 -57 -10
-8 -29 -14 -41 -14 -23 0 -34 -17 -34 -53 0 -12 -7 -31 -15 -41 -14 -19 -16
-18 -67 17 -29 20 -107 79 -173 132 -142 112 -334 246 -425 296 -51 28 -253
159 -268 173 -1 2 14 21 33 42 50 54 71 129 57 200 -11 51 -10 55 23 110 19
32 43 67 53 78 10 12 47 65 82 119 63 97 63 98 84 79 12 -10 82 -72 156 -138
74 -66 160 -140 190 -164 30 -24 85 -73 122 -108 60 -59 69 -64 84 -51 9 8 18
13 18 11 1 -2 9 0 19 4 10 3 21 4 24 1 15 -15 43 15 43 47 0 22 12 49 41 87
39 51 116 201 164 318 l22 53 42 -118 c24 -66 56 -150 71 -189 16 -38 36 -94
46 -124 l19 -53 -25 -20 c-22 -18 -22 -20 -4 -14 24 7 59 -25 69 -66 15 -60
119 -148 175 -148 11 0 20 -5 20 -11 0 -7 -28 -69 -61 -138 -34 -69 -77 -157
-96 -196 -18 -38 -49 -97 -68 -130 -18 -33 -42 -85 -51 -115 -10 -30 -37 -93
-61 -139 -24 -46 -43 -93 -41 -105 8 -57 39 -10 203 318 144 287 180 351 238
421 38 46 76 94 85 107 26 37 51 55 155 110 53 28 97 55 97 61 0 15 44 46 66
47 12 0 27 7 34 15 7 9 19 14 27 11 7 -3 21 3 30 12 51 51 341 115 567 124
l69 3 44 -100 c80 -181 200 -488 242 -618 l42 -129 4 -211 c7 -322 13 -458 45
-947 6 -85 13 -166 16 -180 3 -14 2 -22 -2 -18 -4 4 -13 3 -20 -2 -6 -6 -17
-9 -24 -8 -7 2 -20 -10 -30 -27 -11 -19 -27 -32 -46 -35 -17 -3 -33 -14 -39
-28 -5 -12 -15 -20 -22 -18 -7 3 -10 -1 -6 -10 4 -10 -2 -14 -20 -14 -14 0
-29 -5 -32 -10 -4 -6 -11 -7 -17 -4 -7 5 -8 2 -4 -5 11 -17 -22 -51 -50 -51
-15 0 -29 -12 -43 -35 -16 -27 -27 -35 -49 -35 -20 0 -32 -8 -46 -31 -15 -26
-23 -30 -47 -27 -16 3 -29 2 -29 -1 0 -12 -53 -66 -62 -63 -5 1 -7 -1 -4 -6 3
-5 -6 -20 -20 -33 -26 -24 -28 -24 -237 -24 -157 0 -220 -4 -244 -14 -18 -7
-33 -18 -33 -23 0 -5 -5 -6 -10 -3 -6 4 -27 -12 -47 -35 -27 -29 -39 -37 -44
-28 -4 8 -31 79 -59 158 -69 193 -140 368 -193 482 -25 51 -62 135 -83 186
-22 51 -47 102 -56 112 -10 11 -18 23 -18 29 0 5 -3 11 -7 13 -8 3 -48 82 -73
143 -27 65 -35 81 -51 102 -9 12 -19 20 -22 16 -4 -3 -9 2 -12 11 -17 53 -16
52 -31 24 -24 -46 -14 -153 37 -393 17 -77 39 -182 50 -232 10 -51 24 -103 29
-115 12 -28 70 -254 111 -438 33 -143 69 -359 65 -387 -3 -18 -72 -47 -88 -36
-6 3 -8 0 -6 -8 3 -8 12 -13 21 -11 27 5 61 -18 48 -31 -13 -13 -15 -31 -2
-23 12 8 21 -18 14 -42 -2 -11 0 -23 6 -26 7 -5 9 0 5 11 -5 14 -4 15 4 4 6
-8 8 -21 4 -29 -3 -9 -1 -13 4 -9 14 8 14 1 20 -271 6 -232 5 -245 -15 -287
-12 -25 -21 -63 -21 -85 l0 -40 275 0 275 0 -4 23 c-3 12 -8 46 -11 76 -6 49
-4 56 21 82 29 31 24 62 -6 34 -17 -15 -19 -15 -23 2 -3 10 -11 61 -17 113 -6
52 -14 106 -17 120 -4 20 1 16 26 -18 18 -24 35 -41 38 -38 3 3 0 12 -7 21 -7
8 -9 15 -5 15 4 0 2 7 -5 15 -11 13 -11 18 1 28 7 7 11 8 7 4 -3 -5 10 -24 30
-42 25 -24 32 -35 21 -35 -25 0 -18 -40 10 -55 23 -12 24 -13 4 -19 -25 -8
-52 -81 -36 -97 8 -8 25 11 61 65 27 41 52 87 56 100 3 14 17 33 31 42 14 9
25 23 25 31 0 8 5 11 11 7 7 -4 7 2 -1 17 -7 13 -9 21 -5 17 6 -6 55 38 55 49
0 2 -10 2 -22 -2 -20 -5 -21 -5 -5 5 10 7 25 9 34 6 14 -6 14 -4 2 11 -12 15
-12 16 3 10 14 -5 21 2 33 29 9 23 19 33 26 28 8 -5 9 -3 4 5 -4 8 1 20 14 32
11 11 28 34 37 52 10 17 33 54 51 82 19 27 41 64 48 82 8 18 18 33 24 33 5 0
16 6 23 13 7 7 40 34 72 60 103 84 198 176 191 187 -3 5 0 7 8 5 8 -4 57 40
124 108 111 113 111 113 117 84 11 -55 6 -92 -29 -212 -20 -66 -52 -185 -71
-265 -89 -363 -105 -420 -168 -566 -61 -142 -116 -299 -116 -330 0 -12 133
-14 994 -14 l993 0 7 133 c14 280 25 880 24 1297 -3 984 -4 1151 -12 1270 -11
191 -35 427 -51 510 -7 41 -19 122 -25 180 -7 57 -15 111 -19 120 -5 8 -11 42
-15 75 -14 124 -71 339 -168 629 -55 165 -110 321 -123 347 -30 58 -29 61 58
236 36 73 70 156 76 185 12 66 37 137 55 158 20 22 131 247 150 303 9 26 23
58 32 72 15 23 150 132 189 152 11 6 147 58 302 117 261 99 464 180 590 237
l53 24 0 1938 0 1937 -52 0 c-68 0 -102 17 -106 52 -4 33 23 43 103 36 l55 -5
0 1594 c0 876 -3 1593 -7 1593 -88 3 -271 36 -373 68 -165 53 -293 89 -530
152 -358 95 -698 203 -801 254 -50 26 -63 27 -232 32 -178 4 -180 4 -223 -21
-23 -14 -47 -25 -52 -25 -5 0 -12 66 -15 148 -12 279 -44 465 -112 661 -98
280 -244 542 -396 707 -84 92 -362 356 -435 414 -51 40 -88 78 -105 108 -14
26 -38 53 -52 60 -28 13 -34 27 -18 37 5 3 -23 54 -62 113 -40 60 -84 129 -99
155 -21 35 -33 47 -51 47 -18 0 -33 14 -59 53 -48 72 -54 90 -27 82 20 -7 20
-6 4 25 -9 17 -31 46 -48 65 -18 19 -48 60 -66 92 -51 86 -151 242 -188 292
-18 24 -33 55 -33 68 0 17 -48 74 -166 201 -92 97 -186 193 -210 212 -23 19
-89 76 -146 125 -281 246 -433 341 -951 598 -313 155 -577 263 -982 402 -60
21 -114 41 -120 45 -30 24 -539 127 -760 154 -151 19 -422 36 -540 35 -49 -1
-187 -9 -305 -19z m1590 -573 c14 -3 66 -10 115 -16 50 -7 97 -15 105 -18 8
-3 20 -7 25 -7 23 -3 55 -18 55 -26 0 -5 9 -18 21 -28 17 -17 18 -20 5 -25
-21 -8 -20 -23 4 -47 11 -11 20 -29 20 -39 0 -15 -10 -20 -50 -26 -27 -4 -50
-9 -50 -11 0 -3 16 -18 35 -35 37 -33 46 -72 19 -83 -9 -3 -50 -6 -92 -6 -69
0 -75 -1 -56 -14 11 -8 33 -18 47 -21 21 -6 27 -13 27 -35 l0 -27 -122 -6
c-68 -4 -141 -3 -163 2 -22 5 -74 16 -115 25 -41 9 -126 33 -187 53 -91 29
-113 40 -113 54 0 17 8 19 70 19 62 0 70 2 70 19 0 21 39 30 135 31 59 1 60 1
33 16 -19 10 -28 23 -28 39 0 23 4 25 43 25 24 0 48 5 55 12 18 18 15 52 -8
81 -11 14 -20 32 -20 41 0 9 -6 16 -14 16 -8 0 -14 8 -13 19 0 11 6 17 14 14
7 -3 13 -1 13 4 0 10 71 9 120 0z m39 -914 c122 -74 161 -110 161 -144 0 -28
-1 -29 -52 -30 -29 -1 -56 -1 -60 0 -5 0 -8 -17 -8 -39 l0 -40 -65 0 c-62 0
-65 -1 -55 -19 14 -27 13 -31 -8 -31 -9 0 -23 -9 -30 -20 -16 -26 -48 -25
-114 1 -29 11 -62 18 -75 14 -14 -3 -23 -1 -23 6 0 6 -6 9 -12 6 -7 -2 -12
-14 -10 -26 5 -30 -15 -51 -47 -51 -14 0 -123 47 -241 104 -118 57 -225 106
-237 110 -13 4 -23 12 -23 17 0 12 63 11 135 -2 72 -13 165 -4 165 17 0 11 19
14 89 14 l90 0 3 28 c3 27 3 27 88 30 47 1 95 4 108 7 27 6 20 22 -14 35 -14
6 -24 18 -24 29 0 22 19 27 119 30 60 1 69 -2 140 -46z m231 -254 c14 -9 45
-28 70 -42 30 -17 44 -31 43 -44 -4 -30 8 -74 18 -67 5 3 6 11 3 17 -5 8 -4 9
4 2 19 -18 -7 -84 -40 -101 -15 -8 -28 -11 -28 -7 0 4 -5 2 -12 -5 -15 -15
-32 -16 -23 -2 11 17 -5 32 -21 19 -7 -6 -12 -15 -9 -19 3 -5 -37 -9 -87 -9
l-93 -1 -45 40 -45 39 80 1 c44 0 90 3 102 6 24 7 22 24 -2 24 -14 0 -32 12
-81 56 -23 20 -23 21 -3 34 10 8 19 22 19 32 0 10 5 18 10 18 6 0 10 5 10 10
0 6 7 22 16 35 l16 25 37 -22 c20 -12 47 -29 61 -39z m155 -98 c3 -5 1 -12 -5
-16 -5 -3 -10 1 -10 9 0 18 6 21 15 7z m-520 -151 c9 7 21 7 41 -1 l29 -12
-34 -7 c-41 -10 -61 -3 -60 19 0 11 2 12 6 3 3 -9 9 -10 18 -2z m-1377 -71
c86 -55 100 -61 160 -65 45 -3 68 0 73 8 6 9 50 12 151 13 l143 0 150 -68
c176 -79 215 -101 215 -122 0 -8 4 -15 9 -15 11 0 101 -80 101 -90 0 -4 -10
-10 -22 -13 l-23 -6 22 -20 c30 -28 20 -61 -18 -61 -27 0 -27 -1 -13 -27 7
-16 14 -31 14 -35 0 -5 -24 -8 -54 -8 -29 0 -81 -3 -115 -7 -56 -5 -62 -8 -57
-26 4 -18 1 -19 -72 -12 -42 3 -86 8 -97 11 -11 2 -14 1 -7 -2 6 -3 12 -9 12
-13 0 -10 -73 0 -90 13 -13 10 -13 9 0 -8 14 -18 13 -19 -2 -13 -27 10 -21 -8
8 -28 37 -24 22 -30 -17 -6 -19 12 -36 16 -39 11 -4 -6 -18 -6 -38 -1 -17 5
-40 7 -51 4 -15 -4 -37 9 -78 44 -80 69 -175 137 -210 152 -17 7 -36 22 -42
34 -7 12 -76 69 -153 127 -265 197 -305 239 -245 253 54 13 137 -23 240 -105
70 -54 119 -78 180 -85 l52 -6 -86 84 c-84 82 -132 149 -108 149 7 0 55 -27
107 -61z m1470 1 c15 -6 21 -15 16 -22 -4 -7 -3 -10 1 -5 9 8 75 -50 75 -66 0
-6 8 -16 18 -23 16 -12 15 -13 -4 -8 -30 8 -95 64 -88 75 3 5 2 8 -3 7 -13 -5
-93 64 -87 74 3 5 16 2 27 -7 12 -8 32 -20 45 -25z m-8 20 c0 -5 -2 -10 -4
-10 -3 0 -8 5 -11 10 -3 6 -1 10 4 10 6 0 11 -4 11 -10z m-3053 -161 c38 -42
114 -99 132 -99 7 0 7 8 1 26 -14 37 -13 43 11 37 22 -6 53 -67 68 -134 10
-44 108 -214 161 -279 72 -88 150 -208 150 -230 0 -12 23 -64 50 -115 28 -51
50 -103 50 -115 0 -11 14 -47 30 -80 17 -33 28 -60 25 -60 -12 0 -87 48 -183
117 -94 68 -168 110 -178 101 -2 -2 12 -30 31 -62 50 -82 25 -59 -60 54 -177
239 -282 466 -299 650 -4 36 -12 102 -19 148 -7 45 -12 82 -10 82 2 0 20 -18
40 -41z m485 -89 c-2 -8 0 -12 4 -8 10 11 35 -12 27 -26 -3 -6 -3 -8 2 -4 11
11 36 -12 28 -25 -3 -5 -2 -7 4 -4 5 3 25 -10 44 -29 19 -20 53 -49 77 -65 37
-25 53 -29 109 -29 65 0 66 0 48 20 -18 19 -17 20 2 20 11 0 32 -9 46 -20 33
-26 37 -25 37 10 l0 30 79 0 78 0 69 -51 c38 -29 94 -73 124 -99 30 -26 80
-65 110 -86 30 -21 62 -44 70 -51 38 -30 157 -126 251 -203 l104 -85 -39 -3
c-21 -2 -43 1 -49 7 -6 6 -31 11 -57 11 -31 0 -41 -3 -30 -10 30 -19 -21 -23
-81 -6 -72 20 -68 20 -62 -4 6 -23 13 -23 -132 -6 -60 7 -117 11 -125 8 -16
-6 -60 -53 -60 -64 0 -4 -11 -10 -24 -14 -20 -5 -39 6 -97 55 -107 90 -131 82
-53 -18 33 -43 44 -65 40 -79 -4 -11 -2 -23 4 -27 18 -11 0 -25 -35 -25 -24 0
-47 11 -85 43 -78 62 -113 87 -126 87 -7 0 -81 89 -166 198 -209 269 -224 291
-238 342 -6 24 -25 63 -41 86 -36 52 -36 56 -2 48 26 -7 26 -6 19 35 -6 40 -5
41 21 41 16 0 35 5 43 10 23 15 66 8 62 -10z m-1508 -29 c9 -56 61 -98 113
-92 7 1 21 -15 32 -36 10 -21 31 -50 46 -65 l27 -27 -31 -103 c-18 -57 -35
-131 -38 -165 -5 -49 -10 -63 -22 -63 -16 0 -26 13 -90 116 -35 57 -74 80
-120 71 -37 -8 -61 17 -61 64 0 38 -15 59 -41 59 -17 0 -17 4 2 58 27 81 48
122 64 128 8 3 22 26 32 50 16 39 22 44 49 44 29 0 32 -3 38 -39z m573 -171
c32 -16 43 -44 43 -118 0 -38 25 -102 39 -102 19 0 42 47 48 99 3 28 12 59 19
68 25 35 41 -4 58 -139 15 -118 15 -132 0 -193 -9 -36 -22 -65 -29 -65 -8 0
-16 -30 -23 -84 -6 -47 -18 -101 -27 -121 -13 -32 -17 -36 -31 -24 -24 19 -41
59 -49 112 l-7 47 -69 0 -69 0 0 93 c0 51 7 147 15 212 8 66 15 152 15 191 0
77 7 96 24 61 6 -12 25 -29 43 -37z m-1459 -746 c6 3 13 2 17 -4 3 -5 1 -10
-5 -10 -6 0 -9 -4 -5 -9 3 -5 0 -15 -7 -23 -7 -7 -14 -20 -15 -28 -1 -8 -19
-56 -41 -105 -85 -193 -184 -521 -243 -808 -16 -77 -34 -145 -40 -151 -9 -8
-10 -2 -5 24 4 19 11 71 17 115 11 85 93 507 130 662 12 51 25 90 29 88 5 -3
6 4 3 15 -3 13 0 20 8 20 8 0 27 28 44 61 16 33 39 71 52 85 12 13 20 24 17
24 -3 0 1 7 10 15 8 9 13 23 10 33 -5 13 -4 14 4 3 5 -7 14 -11 20 -7z m42
-185 c-5 -52 -15 -226 -20 -387 l-10 -293 -37 -54 c-21 -32 -43 -55 -53 -55
-10 0 -20 -7 -23 -14 -6 -15 -158 -109 -164 -102 -6 6 75 342 118 491 59 203
182 526 195 512 3 -3 0 -47 -6 -98z m811 -54 c59 -21 100 -62 174 -176 34 -52
76 -106 94 -120 17 -13 47 -37 66 -52 19 -16 47 -32 62 -36 27 -7 28 -10 31
-85 2 -67 -1 -85 -24 -134 -41 -87 -218 -349 -353 -522 -66 -85 -144 -190
-173 -232 -29 -43 -58 -78 -65 -78 -15 0 -112 66 -131 89 -27 33 -61 118 -67
171 -10 85 17 190 100 391 41 98 75 181 75 184 0 3 -13 -10 -30 -28 -33 -39
-87 -144 -116 -227 -19 -56 -78 -135 -117 -157 -33 -18 -89 -15 -138 7 -55 25
-81 26 -72 4 5 -14 2 -16 -23 -10 -31 7 -64 41 -94 96 -11 19 -19 28 -20 20 0
-25 68 -118 98 -133 15 -8 51 -22 81 -32 29 -10 62 -26 72 -36 27 -27 90 -51
120 -45 25 5 26 3 33 -55 9 -91 49 -164 124 -226 36 -31 72 -53 86 -53 24 0
131 67 162 101 9 11 18 28 19 39 1 17 70 120 80 120 1 0 2 -12 1 -27 -1 -16
-16 -48 -34 -72 -18 -24 -32 -50 -32 -57 0 -6 -41 -45 -91 -86 -51 -40 -136
-115 -190 -167 -79 -76 -107 -110 -140 -174 -55 -106 -69 -162 -69 -285 0
-170 37 -215 177 -209 69 3 87 9 158 46 44 23 130 76 190 118 61 41 121 81
135 88 14 7 50 36 80 64 30 28 71 56 90 61 33 9 68 37 241 190 59 52 65 62 61
89 -2 17 -6 31 -8 31 -5 0 -225 -194 -291 -256 -23 -22 -63 -51 -88 -63 -26
-13 -76 -47 -113 -77 -37 -30 -78 -57 -92 -60 -14 -3 -50 -26 -80 -50 -30 -24
-82 -58 -115 -74 -33 -17 -80 -41 -105 -55 -37 -21 -53 -24 -90 -19 -86 12
-120 55 -127 161 -3 53 0 71 21 111 14 26 44 92 68 146 36 86 53 111 117 179
118 123 258 258 288 277 38 24 112 103 223 240 52 63 120 143 152 178 32 35
57 69 56 77 -5 23 93 175 113 175 10 0 21 5 24 10 3 6 26 10 50 10 41 0 46 -3
116 -82 41 -46 100 -111 131 -146 52 -56 58 -67 58 -105 0 -23 -13 -72 -29
-109 -38 -88 -155 -294 -209 -366 -23 -31 -41 -64 -40 -72 5 -26 35 -22 72 11
33 28 128 159 166 227 8 15 18 29 21 32 9 9 79 148 83 167 16 71 32 81 111 63
51 -11 74 -30 214 -164 42 -40 65 -56 68 -48 5 13 15 1 39 -47 4 -7 -4 -36
-18 -65 -14 -28 -32 -76 -41 -106 -19 -65 -148 -331 -200 -412 -21 -31 -37
-61 -37 -67 0 -25 -103 -92 -308 -203 -122 -65 -256 -135 -297 -153 l-74 -34
6 29 c8 44 -8 37 -51 -21 -33 -44 -52 -57 -143 -100 -58 -27 -139 -61 -179
-75 l-73 -26 -47 27 c-70 41 -89 91 -80 212 4 64 3 93 -4 93 -22 0 -41 -73
-43 -159 -2 -99 14 -139 74 -179 30 -21 41 -23 94 -17 79 9 142 31 305 105 74
34 156 66 181 70 61 11 143 49 328 153 84 48 165 90 180 93 39 10 90 51 121
100 15 25 39 53 54 65 14 11 50 58 81 104 31 47 62 85 70 85 16 0 52 65 85
156 l22 61 101 51 c56 28 156 71 222 97 155 61 347 157 615 307 324 182 340
192 415 257 39 34 142 116 230 182 88 67 221 170 295 229 74 59 178 137 230
174 119 83 151 87 212 26 l40 -39 -4 -108 c-3 -103 -5 -112 -44 -193 -76 -159
-258 -368 -508 -585 -118 -102 -178 -147 -407 -304 -47 -33 -223 -129 -390
-214 -564 -286 -1091 -558 -1138 -584 -25 -15 -75 -48 -111 -74 -36 -25 -76
-50 -90 -54 -37 -11 -170 -102 -295 -202 -61 -48 -132 -104 -157 -123 -40 -30
-56 -53 -105 -155 -52 -108 -58 -126 -57 -183 l0 -62 -28 27 c-15 15 -28 24
-28 20 0 -3 30 -53 67 -109 138 -212 248 -338 296 -338 13 0 36 -13 51 -29 40
-42 117 -73 335 -136 247 -71 328 -103 423 -165 110 -72 194 -173 331 -402
l47 -78 0 -98 c0 -95 -1 -99 -24 -110 -14 -6 -29 -26 -36 -46 -6 -20 -13 -36
-14 -36 -16 0 -143 61 -226 109 -58 34 -110 61 -117 61 -7 0 -13 9 -13 20 0
26 -36 44 -199 95 -266 84 -415 117 -711 157 -146 20 -206 23 -525 23 l-360 0
0 31 c-1 45 -15 58 -134 119 -59 30 -124 71 -146 91 -22 20 -48 42 -58 49 -10
7 -20 21 -22 31 -1 11 -8 18 -14 17 -6 -2 -11 2 -11 7 0 5 -6 9 -12 7 -8 -1
-13 7 -12 20 1 13 -2 20 -6 18 -16 -10 -38 7 -50 36 -7 16 -17 29 -22 29 -5 0
-7 4 -3 9 3 5 -5 18 -18 28 -13 10 -71 104 -129 208 -58 105 -121 215 -140
246 -19 31 -51 106 -72 167 -24 69 -43 112 -52 112 -29 0 -78 41 -143 121 -37
46 -87 104 -111 129 l-43 45 53 -85 c30 -47 69 -110 87 -140 18 -30 51 -80 72
-110 34 -49 85 -139 206 -365 21 -38 63 -117 95 -175 87 -158 152 -291 249
-509 115 -257 204 -401 248 -401 8 0 23 -5 34 -11 19 -10 19 -12 5 -34 -9 -14
-16 -33 -16 -44 0 -12 -7 -20 -17 -20 -10 0 -76 -5 -146 -11 -71 -6 -156 -10
-189 -8 l-61 3 -12 43 c-7 23 -19 49 -25 57 -10 12 -10 15 1 15 25 0 123 51
152 78 35 33 34 49 -3 70 -16 9 -30 22 -30 29 0 9 -8 9 -32 -1 -18 -8 -53 -17
-78 -21 -25 -3 -80 -16 -122 -27 l-77 -20 -68 40 c-150 87 -190 114 -237 160
-26 26 -54 59 -62 73 -7 15 -25 35 -39 46 l-26 19 78 55 c80 57 195 127 318
194 120 65 167 97 156 108 -16 16 -321 -160 -484 -279 l-88 -65 -77 68 c-42
37 -119 110 -171 161 -52 51 -99 96 -105 100 -15 9 -146 164 -146 172 0 9 302
250 460 367 125 92 173 133 156 133 -26 0 -268 -181 -477 -356 l-145 -122 -65
5 c-35 3 -73 12 -84 19 -11 8 -28 14 -38 14 -30 0 -71 26 -227 143 -141 106
-329 231 -337 223 -11 -11 17 -40 90 -91 180 -128 327 -255 301 -261 -5 -1
-21 -5 -35 -8 -24 -5 -27 -12 -34 -62 -5 -39 -3 -59 5 -64 6 -4 12 -11 12 -16
1 -9 15 -28 102 -137 50 -63 176 -251 176 -263 0 -14 135 -210 173 -251 21
-23 36 -47 32 -53 -3 -5 -1 -10 5 -10 6 0 8 -4 5 -10 -3 -5 1 -10 9 -10 9 0
16 -6 16 -14 0 -8 7 -21 15 -30 9 -9 11 -17 5 -21 -5 -3 -3 -13 6 -23 51 -59
64 -76 64 -83 0 -4 9 -10 19 -14 17 -5 35 -38 32 -58 -1 -5 3 -6 8 -2 6 3 29
-15 52 -40 23 -25 48 -45 55 -45 8 0 14 -7 14 -15 0 -8 11 -17 25 -21 14 -3
25 -12 25 -19 0 -13 28 -30 43 -26 5 1 5 -3 2 -9 -4 -7 2 -14 14 -17 12 -3 21
-9 21 -14 0 -5 6 -9 13 -9 7 0 19 -9 27 -20 11 -15 17 -17 29 -7 12 9 13 9 8
0 -5 -7 1 -21 12 -32 19 -19 19 -20 -14 -57 l-34 -37 -58 25 c-32 14 -69 29
-83 33 -47 14 -238 116 -244 131 -3 8 -12 14 -21 14 -8 0 -15 3 -15 8 0 4 -10
13 -21 21 -18 11 -23 11 -30 -1 -6 -8 -12 -9 -16 -3 -5 6 -46 29 -93 52 -78
39 -120 69 -327 235 -40 32 -81 58 -91 58 -27 0 -66 40 -92 91 -12 24 -28 51
-35 59 -8 8 -28 42 -45 75 -48 91 -261 438 -279 455 -9 8 -25 33 -35 55 -11
22 -22 42 -25 45 -4 3 -20 37 -36 75 -16 39 -46 106 -66 150 -45 97 -62 155
-89 300 -12 61 -32 153 -45 205 -13 52 -26 116 -29 141 -4 26 -20 68 -37 94
-33 52 -52 158 -65 355 l-6 105 46 105 c26 58 50 108 54 112 4 4 7 -16 6 -45
0 -29 5 -70 12 -92 7 -22 18 -82 24 -134 11 -84 19 -123 37 -171 4 -8 8 -28
10 -45 9 -67 34 -133 55 -147 13 -9 38 -46 57 -84 18 -38 44 -83 57 -101 13
-17 24 -37 24 -43 0 -6 4 -8 10 -5 5 3 10 -1 10 -9 0 -9 4 -16 10 -16 5 0 7
-7 4 -15 -4 -8 -2 -15 3 -15 4 0 18 -21 31 -48 12 -26 33 -61 47 -77 l24 -30
-20 63 c-24 81 -24 89 5 96 18 4 26 14 28 34 3 24 8 28 50 32 55 7 82 29 138
110 51 76 80 134 80 164 0 18 28 58 88 128 48 57 113 136 144 176 30 40 91
102 134 138 44 36 81 69 82 75 7 18 -26 9 -64 -19 -22 -16 -50 -32 -64 -35
-45 -11 -150 -88 -243 -176 -109 -103 -331 -367 -352 -418 -9 -20 -21 -43 -27
-50 -18 -22 -37 37 -49 153 -9 90 -8 106 6 128 12 18 16 43 14 88 -2 51 1 70
19 98 24 37 57 139 68 205 3 22 13 53 21 68 29 56 474 479 489 464 3 -2 12
-33 21 -68 25 -101 151 -355 211 -424 23 -28 52 -39 52 -20 0 32 19 20 65 -43
157 -213 453 -592 462 -592 2 0 -5 12 -16 26 -12 15 -21 31 -21 35 0 5 -35 57
-77 115 -108 146 -139 190 -180 254 -20 30 -79 120 -131 200 -119 182 -146
238 -168 354 l-17 92 58 55 c31 29 83 70 114 90 31 20 159 103 285 184 126 81
319 199 430 262 232 133 266 157 266 184 0 10 7 19 15 19 17 0 173 184 302
357 66 87 91 113 105 110 17 -5 65 38 117 104 24 31 136 124 210 173 59 40 94
45 162 21z m1315 -137 c57 -114 143 -253 319 -518 90 -135 186 -282 214 -327
l51 -82 -38 -7 c-163 -28 -337 -80 -401 -121 -23 -15 -26 -14 -42 5 -21 27
-149 132 -160 132 -17 0 -21 125 -10 412 15 402 23 578 27 578 2 0 20 -33 40
-72z m6684 55 c0 -7 6 -10 14 -7 28 11 183 -272 260 -474 38 -99 94 -298 120
-426 11 -53 16 -128 15 -235 l-1 -156 -14 60 c-20 85 -62 209 -96 284 -76 169
-170 294 -393 521 -173 176 -185 190 -236 290 -30 58 -58 108 -63 111 -5 4 -6
15 -1 25 7 18 8 18 15 -1 5 -11 9 -14 9 -7 1 9 36 12 139 13 75 1 151 5 167 9
43 10 65 8 65 -7z m-158 -448 c283 -284 390 -446 481 -730 61 -192 61 -189
-33 -234 -62 -30 -89 -48 -163 -109 -29 -24 -71 -55 -95 -69 l-43 -26 -47 21
c-26 12 -69 30 -96 39 l-49 18 2 135 c0 74 4 169 7 210 7 84 -8 265 -32 382
-18 92 -106 383 -158 523 l-37 100 57 -55 c31 -30 124 -122 206 -205z m-3401
83 c25 -47 59 -103 76 -125 17 -21 55 -74 84 -118 136 -202 429 -430 629 -489
30 -9 109 -45 175 -81 206 -113 305 -159 675 -311 58 -24 119 -44 135 -44 17
0 98 -14 180 -30 85 -17 230 -36 334 -45 242 -19 249 -21 264 -56 7 -16 34
-46 62 -67 27 -21 66 -59 86 -86 74 -98 198 -363 244 -523 26 -89 52 -128 78
-117 16 6 17 -14 17 -217 1 -123 3 -336 4 -474 2 -137 0 -288 -5 -335 -5 -47
-16 -167 -24 -265 -21 -253 -59 -512 -105 -726 -22 -101 -40 -187 -40 -190 0
-17 -297 -119 -347 -119 -18 0 -33 -4 -33 -9 0 -5 -51 -26 -112 -46 -132 -43
-320 -120 -433 -177 -44 -22 -106 -50 -137 -62 l-57 -22 -163 -246 c-90 -135
-181 -276 -203 -313 -40 -68 -117 -164 -193 -242 -51 -53 -106 -70 -177 -55
-34 7 -52 6 -57 -1 -7 -12 -117 64 -165 115 -34 36 -62 100 -70 161 -3 22 -11
37 -19 37 -14 0 -30 62 -19 79 9 16 25 13 25 -4 0 -9 11 -21 25 -27 57 -26
145 81 175 216 6 26 21 69 34 94 43 88 116 279 116 305 0 27 13 36 25 17 9
-15 35 -12 35 4 0 7 -11 21 -24 29 -13 9 -34 32 -46 51 -12 20 -29 36 -37 36
-9 0 -74 20 -145 45 -71 25 -138 45 -149 45 -11 0 -43 10 -70 21 -46 20 -50
25 -63 73 -12 43 -21 109 -39 281 -1 11 3 19 11 18 25 -6 11 29 -20 45 -17 9
-45 31 -62 48 -19 19 -61 41 -109 59 -83 29 -181 94 -211 139 -16 25 -17 41
-11 144 4 64 7 143 7 177 -1 102 4 111 62 134 28 11 74 26 101 34 l50 15 -47
1 c-106 2 -152 -15 -608 -236 -242 -117 -386 -197 -426 -237 -17 -17 -98 -64
-180 -105 -82 -41 -162 -87 -179 -101 -16 -15 -84 -55 -150 -89 -200 -105
-342 -205 -680 -482 -112 -92 -171 -145 -253 -231 -26 -27 -223 -168 -259
-186 -31 -15 -33 -14 -52 9 -60 71 -65 194 -16 346 58 175 241 425 454 616
294 265 376 330 578 455 73 45 163 102 200 125 37 24 82 47 98 51 55 13 246
117 510 276 414 249 480 293 675 440 41 31 86 63 100 70 13 7 31 21 40 30 8
10 52 43 98 74 45 31 126 91 178 133 172 141 418 313 446 313 8 0 21 7 28 15
7 8 9 15 5 15 -4 0 21 27 54 60 34 33 61 65 61 72 0 6 20 38 45 70 70 88 113
196 85 213 -5 3 -10 -3 -10 -14 0 -27 -10 -51 -22 -51 -6 0 -28 -15 -48 -32
-59 -51 -112 -88 -125 -88 -6 0 -17 12 -23 26 -7 14 -8 23 -2 19 13 -8 0 24
-19 47 -9 10 -19 18 -24 18 -5 0 -33 23 -62 51 -30 28 -63 58 -75 66 -11 8
-33 26 -48 40 -44 41 -81 56 -122 49 -34 -5 -47 1 -150 70 -363 243 -521 430
-635 755 -33 92 -37 114 -36 193 2 110 21 191 68 276 44 81 95 150 108 147 6
-2 31 -42 56 -89z m-3816 -228 c-3 -5 -21 -10 -38 -9 -27 0 -29 2 -12 9 28 12
57 12 50 0z m6438 -412 l29 -53 -51 54 c-28 29 -48 57 -45 62 10 17 39 -9 67
-63z m326 -10 c49 -107 78 -211 87 -317 7 -82 6 -83 -14 -72 -11 6 -37 29 -58
51 -21 22 -61 49 -89 61 -51 21 -51 21 -97 128 -50 114 -73 186 -63 201 3 6 1
10 -4 10 -6 0 -11 3 -11 8 0 4 47 8 105 10 l106 4 38 -84z m-456 11 c12 -6 67
-54 122 -106 55 -52 108 -101 118 -109 9 -8 17 -18 17 -24 0 -14 -43 -13 -57
1 -9 9 -23 9 -54 1 -36 -9 -48 -8 -80 9 -43 21 -74 25 -63 8 5 -8 0 -10 -17
-6 -16 4 -37 -1 -59 -15 -93 -56 -212 -118 -219 -114 -4 3 -6 54 -3 113 l4
108 47 49 c76 79 182 117 244 85z m-4904 -181 c-31 -21 -134 -70 -294 -141
-93 -42 -192 -87 -220 -100 -27 -14 -51 -24 -52 -23 -1 1 7 31 18 66 11 37 19
86 18 114 -2 35 1 50 13 57 30 17 304 111 372 128 l69 18 45 -55 c35 -43 41
-56 31 -64z m5156 -133 c20 -8 38 -21 41 -29 3 -8 13 -16 23 -19 10 -2 44 -38
76 -78 95 -122 171 -187 377 -323 99 -66 207 -161 195 -172 -7 -7 -192 47
-294 86 -59 22 -111 40 -117 40 -6 -1 -22 -10 -35 -21 l-24 -20 23 -24 c35
-38 186 -111 338 -165 75 -26 169 -61 207 -78 39 -16 95 -35 125 -42 30 -7 80
-21 110 -32 30 -11 67 -22 82 -25 20 -4 39 -23 70 -69 24 -35 49 -64 56 -64 6
0 12 -5 12 -12 0 -6 9 -30 19 -52 11 -23 21 -57 24 -76 13 -90 19 -120 36
-185 45 -168 -11 -624 -100 -815 -18 -37 -20 -54 -14 -100 11 -83 14 -191 6
-185 -5 2 -7 -7 -5 -21 1 -15 -4 -28 -13 -31 -22 -9 -53 -88 -53 -138 0 -41
-31 -137 -85 -265 -13 -30 -30 -80 -39 -111 -31 -109 -42 -114 -291 -148 -280
-38 -294 -40 -177 -34 57 3 146 11 198 17 52 7 94 10 94 6 0 -12 -56 -57 -105
-85 -27 -15 -97 -52 -155 -82 -242 -128 -385 -207 -388 -215 -6 -14 -87 -66
-114 -73 -17 -4 -43 3 -85 24 -33 17 -74 34 -91 37 -27 5 -83 50 -71 56 17 11
233 78 237 74 8 -8 -19 -66 -46 -98 -17 -21 -22 -32 -14 -40 7 -7 14 -4 24 11
7 11 23 21 35 21 51 0 82 131 183 772 11 75 30 257 40 405 11 147 24 309 30
358 18 174 20 293 10 610 -12 336 -16 366 -72 565 -55 195 -132 354 -283 585
-39 61 -81 126 -93 147 -27 43 -37 48 -90 41 -40 -5 -82 -33 -82 -55 0 -6 8
-4 18 5 10 9 33 20 52 23 50 11 29 -11 -30 -31 -28 -9 -50 -21 -50 -26 0 -15
42 -10 88 11 l42 19 14 -22 c7 -12 30 -48 51 -81 27 -44 32 -57 18 -52 -49 19
-187 46 -265 52 -49 4 -88 10 -88 13 0 23 127 120 237 181 94 53 123 59 178
35z m-4098 -118 c79 -53 98 -74 62 -70 -10 2 -19 -2 -19 -7 0 -6 -4 -10 -10
-10 -5 0 -10 7 -10 15 0 8 -7 15 -15 15 -8 0 -15 5 -15 11 0 6 -7 3 -16 -6
-15 -15 -18 -15 -32 -1 -13 12 -13 18 -2 31 11 13 10 14 -4 9 -11 -4 -26 2
-42 17 -23 22 -24 24 -8 36 10 7 21 13 26 13 4 0 43 -24 85 -53z m5452 -6 c45
-88 180 -295 259 -399 48 -63 97 -130 109 -150 11 -21 42 -125 67 -232 26
-107 55 -224 66 -260 29 -93 39 -238 41 -625 l1 -340 -36 -240 c-46 -296 -61
-377 -81 -429 -15 -38 -22 -44 -98 -75 -45 -19 -113 -56 -152 -81 -76 -50
-212 -117 -221 -108 -3 4 -1 14 4 25 16 31 44 115 61 183 9 36 28 83 42 105
33 51 54 111 52 150 -1 16 3 33 10 37 9 6 9 8 -1 8 -9 0 -8 6 4 25 8 13 12 30
8 36 -5 8 -3 9 6 4 10 -6 12 -4 7 7 -3 9 -3 19 1 23 4 4 7 10 7 13 0 4 9 21
21 37 41 61 94 210 87 246 -3 14 9 59 27 104 18 44 45 121 62 170 29 90 29 90
12 144 -9 30 -18 71 -20 92 -2 20 -6 50 -9 66 -3 15 -10 57 -15 93 -34 216
-28 198 -84 259 -107 117 -144 182 -205 368 -79 237 -176 403 -237 403 -12 0
-33 12 -46 28 -27 32 -68 52 -107 52 -15 0 -36 9 -46 20 -10 11 -26 22 -36 25
-11 4 -19 10 -19 14 0 4 38 31 84 59 45 28 90 62 99 75 9 14 50 43 91 65 112
61 156 61 185 3z m-1864 -84 c12 -3 4 -5 -17 -6 -30 -1 -36 2 -32 14 4 10 10
12 18 6 6 -5 20 -11 31 -14z m-3335 -52 c285 -144 602 -251 890 -300 132 -22
172 -34 164 -47 -4 -6 -3 -8 4 -4 14 8 123 -4 117 -14 -2 -3 19 2 48 12 31 10
66 16 87 13 19 -3 49 -1 65 4 25 8 26 9 8 10 -27 1 -31 21 -5 22 9 0 69 0 132
-1 75 0 135 5 173 15 82 21 96 19 147 -21 51 -40 120 -112 120 -124 0 -4 -17
-11 -37 -15 -20 -4 -55 -16 -77 -27 -22 -11 -88 -36 -146 -55 -112 -36 -270
-115 -387 -195 -40 -27 -73 -50 -73 -52 0 -3 59 16 131 40 72 25 135 44 140
42 6 -2 -40 -48 -102 -103 -148 -133 -269 -258 -269 -280 0 -3 14 3 31 16 39
28 59 13 34 -25 -30 -45 -8 -41 47 9 29 26 98 70 153 97 107 54 256 120 260
116 2 -2 -24 -21 -56 -43 -33 -22 -57 -45 -55 -52 5 -11 -139 -131 -150 -125
-3 2 -20 -7 -37 -21 -18 -13 -63 -46 -100 -72 l-69 -48 -81 43 c-196 102 -573
378 -801 586 -146 133 -551 586 -551 616 0 11 79 46 104 47 7 1 71 -28 141
-64z m-1190 -317 c0 -19 -2 -20 -10 -8 -13 19 -13 30 0 30 6 0 10 -10 10 -22z
m5 -34 c7 2 18 -1 24 -7 7 -7 11 -8 11 0 0 5 11 9 25 8 14 -2 25 1 25 7 0 6
12 2 27 -7 22 -15 57 -18 202 -22 202 -5 171 7 342 -132 259 -210 706 -462
1015 -571 146 -51 313 -90 389 -90 79 0 142 -15 229 -55 l59 -26 -49 -36
c-176 -127 -454 -303 -711 -452 -42 -24 -70 -47 -68 -54 5 -13 -176 -115 -320
-181 -44 -20 -89 -45 -100 -55 -11 -10 -45 -26 -75 -36 -156 -50 -403 -213
-658 -435 -75 -65 -153 -136 -174 -157 -20 -21 -69 -72 -108 -113 -73 -75
-227 -276 -266 -345 l-20 -37 -45 53 c-38 45 -41 52 -21 47 19 -5 35 5 85 53
l62 59 2 133 2 132 -36 65 c-52 93 -167 261 -220 321 -26 28 -73 69 -107 92
-102 68 -299 276 -395 416 -28 41 -51 78 -51 83 0 4 28 -13 63 -38 34 -26 86
-58 116 -71 30 -13 65 -33 78 -43 14 -10 41 -24 61 -31 20 -6 50 -23 66 -36
16 -14 52 -36 80 -49 95 -46 90 -32 -33 94 -104 107 -103 105 -227 369 l-43
91 34 44 c29 37 57 55 172 110 76 37 147 69 158 72 19 6 20 1 20 -158 0 -159
1 -165 28 -222 28 -58 29 -59 69 -59 64 0 90 -54 47 -94 l-22 -20 38 -47 c38
-46 151 -142 216 -181 19 -12 73 -31 122 -44 84 -21 89 -21 153 -5 37 9 83 25
103 36 47 24 150 130 194 200 43 69 88 181 94 234 11 90 -39 241 -108 327 -17
21 -29 39 -27 39 3 0 38 -11 78 -25 71 -24 130 -32 130 -18 0 4 -12 20 -27 36
-32 34 -12 26 46 -17 41 -31 49 -28 25 9 -25 39 -129 109 -235 159 l-94 45 75
1 c69 1 73 2 50 14 -60 32 -408 86 -556 86 -179 0 -310 -26 -557 -110 -82 -27
-154 -50 -159 -50 -6 0 -45 -17 -88 -39 l-77 -39 -7 61 c-3 33 -6 128 -6 212
l0 151 68 32 c37 17 117 52 177 78 61 26 199 89 308 141 171 82 200 93 214 81
9 -7 14 -8 10 -2 -8 14 18 38 33 29 5 -3 13 1 16 10 6 14 9 13 21 -5 8 -12 21
-19 28 -16z m3324 -91 c-36 -49 -42 -54 -50 -41 -5 7 4 21 24 35 37 28 44 29
26 6z m-259 -177 c0 -25 -70 -78 -97 -73 -13 2 -26 0 -29 -4 -7 -12 -61 -11
-68 0 -8 13 50 60 82 67 15 3 36 9 47 14 31 14 65 12 65 -4z m-150 -211 c-13
-14 -27 -25 -32 -25 -9 0 42 49 51 50 3 0 -6 -11 -19 -25z m-2350 -260 c0 -4
-24 5 -117 42 -7 3 -10 9 -7 14 5 8 124 -46 124 -56z m-1115 -34 c-6 -5 -21
-11 -35 -15 -21 -5 -20 -3 5 9 35 17 42 18 30 6z m644 -93 c21 -56 22 -65 9
-88 -22 -39 -50 -32 -75 20 -35 75 -36 93 -5 113 15 9 32 17 37 17 6 0 21 -28
34 -62z m-640 48 c-14 -13 -70 -36 -64 -26 4 6 17 15 29 20 22 9 42 13 35 6z
m-269 -20 c0 -2 -7 -9 -15 -16 -12 -10 -15 -10 -15 4 0 9 7 16 15 16 8 0 15
-2 15 -4z m1110 -60 c0 -8 -4 -17 -9 -21 -12 -7 -24 12 -16 25 9 15 25 12 25
-4z m67 -22 c8 -21 -6 -32 -47 -40 l-35 -7 29 32 c33 35 44 38 53 15z m-1418
-129 c0 -5 -6 1 -14 15 -8 14 -14 30 -14 35 0 6 6 -1 14 -15 8 -14 14 -29 14
-35z m967 -16 c8 -14 -14 -29 -42 -29 -23 0 -48 23 -37 33 11 11 71 8 79 -4z
m74 -72 c0 -21 -57 -57 -90 -57 -41 0 -51 27 -21 52 28 22 111 26 111 5z m506
-40 c18 -19 19 -24 6 -33 -11 -8 -12 -18 -3 -50 17 -61 14 -135 -8 -170 -36
-59 -126 -98 -248 -107 -71 -6 -73 -5 -98 24 -14 17 -25 37 -25 45 0 17 -14
18 -40 4 -18 -10 -19 -6 -16 62 2 76 11 101 44 131 17 16 26 17 58 8 35 -10
42 -8 74 17 19 16 43 45 54 66 l18 37 82 -6 c65 -5 85 -11 102 -28z m1904
-646 c0 -33 -7 -95 -15 -138 -21 -108 -19 -169 5 -208 45 -73 193 -164 303
-187 86 -18 107 -46 107 -146 0 -42 5 -117 10 -166 8 -77 14 -96 42 -135 18
-25 39 -51 48 -58 14 -11 94 -30 150 -35 21 -3 28 -13 43 -58 10 -30 26 -63
35 -74 16 -17 15 -20 -18 -50 -44 -39 -159 -195 -193 -263 -18 -34 -46 -67
-89 -100 -93 -73 -336 -245 -390 -276 -26 -15 -52 -36 -58 -46 -8 -15 -27 -20
-103 -26 -86 -6 -100 -4 -168 20 -41 14 -128 39 -195 55 -168 39 -230 58 -544
165 -677 230 -943 331 -1038 393 -29 19 -58 32 -65 29 -7 -3 -21 1 -30 8 -16
11 -6 23 95 107 160 134 402 325 478 380 133 95 413 269 493 306 45 21 125 65
177 99 52 33 122 72 155 87 33 15 69 35 80 46 29 27 636 329 663 329 20 1 22
-3 22 -58z m-5015 -329 c18 -10 16 -11 -16 -12 -42 0 -70 25 -94 85 l-17 40
54 -51 c29 -28 62 -56 73 -62z m16 -69 c36 -13 95 -17 326 -21 l282 -4 -35
-77 c-48 -105 -88 -163 -138 -204 l-42 -35 -90 12 c-80 10 -89 14 -92 34 -3
21 0 22 78 22 73 0 83 3 105 25 50 49 22 98 -33 59 -18 -12 -42 -15 -104 -12
l-80 3 -43 47 c-23 26 -45 44 -49 41 -10 -10 -7 -45 3 -39 5 3 11 -1 15 -9 5
-13 1 -13 -31 0 -19 8 -37 15 -38 15 -4 0 -95 147 -95 154 0 10 14 7 61 -11z
m1103 -42 c33 -6 61 -12 62 -14 5 -4 -259 4 -273 8 -64 21 106 26 211 6z m156
-132 c83 -9 97 -14 113 -35 10 -13 24 -24 31 -24 7 0 23 -12 37 -26 56 -60
122 -68 274 -33 49 11 100 23 113 25 37 7 19 29 -26 32 -30 2 -42 8 -42 19 0
11 7 14 23 11 44 -10 182 -53 192 -60 6 -5 53 -36 105 -70 80 -51 92 -62 75
-69 -11 -4 -30 -8 -42 -8 -13 -1 -46 -16 -75 -33 -50 -31 -58 -33 -148 -33
-91 0 -104 3 -280 64 -163 56 -396 147 -515 201 -22 10 -49 28 -60 40 l-20 22
75 -6 c41 -4 118 -11 170 -17z m-360 -239 c62 -41 233 -132 321 -169 104 -44
251 -86 343 -96 32 -4 76 -13 98 -21 99 -35 55 6 -71 67 -105 50 -270 149
-291 174 -7 8 -10 18 -7 21 3 3 77 -19 165 -50 88 -30 187 -60 221 -67 34 -6
59 -14 56 -17 -7 -7 25 -42 40 -42 10 0 126 -97 133 -111 2 -4 27 -38 56 -76
30 -37 79 -117 110 -177 55 -107 68 -144 44 -130 -8 5 -9 2 -4 -12 4 -10 17
-59 28 -109 17 -77 19 -115 15 -260 -4 -175 -12 -213 -62 -319 -21 -43 -32
-44 -165 -16 -52 10 -97 17 -102 14 -15 -9 -455 45 -1103 136 -514 73 -678 91
-855 96 -155 5 -183 3 -244 -14 -49 -14 -76 -18 -93 -11 -48 18 -116 10 -182
-21 -77 -37 -83 -41 -401 -310 -140 -118 -318 -266 -395 -328 -77 -61 -165
-132 -195 -156 -30 -24 -87 -69 -126 -100 l-72 -55 -101 51 c-89 44 -106 49
-127 40 -20 -10 -24 -9 -24 6 0 23 216 195 538 429 333 243 478 360 617 498
161 160 192 196 209 236 29 70 116 371 116 403 0 29 5 35 38 50 72 33 89 55
148 196 89 215 74 195 157 208 40 7 124 23 187 37 63 14 139 25 167 25 47 0
54 -3 69 -27 62 -103 133 -199 199 -268 42 -44 90 -103 106 -131 26 -46 59
-86 59 -71 0 16 -59 165 -105 267 -51 111 -91 219 -84 224 50 33 112 33 137 1
32 -40 98 -175 125 -255 46 -135 62 -367 31 -469 -14 -48 -67 -158 -116 -239
-11 -18 -18 -35 -15 -38 10 -10 161 192 173 229 3 12 30 83 60 158 30 75 66
181 80 235 23 86 26 113 22 209 -3 63 -11 125 -19 145 -8 19 -13 43 -11 53 3
16 6 16 40 -4 20 -13 48 -30 62 -39z m7611 -296 c40 -82 83 -156 99 -171 17
-14 31 -39 35 -61 3 -20 22 -95 42 -165 33 -118 35 -129 20 -144 -15 -15 -18
-15 -37 2 -41 37 -245 38 -320 0 -14 -7 -69 -18 -123 -24 -106 -12 -345 -82
-456 -132 -151 -69 -341 -138 -526 -193 -120 -34 -121 -34 -347 -37 l-227 -3
-48 34 c-26 19 -54 41 -63 48 -8 8 -44 33 -80 55 -48 31 -66 48 -68 67 -3 30
83 162 188 289 39 47 78 102 88 122 10 23 26 40 41 44 13 3 69 28 125 55 111
54 459 179 517 187 44 6 53 1 161 -80 99 -75 129 -85 167 -60 14 9 69 31 121
49 101 34 446 181 546 233 32 16 63 30 67 31 4 0 40 -66 78 -146z m1557 54
c17 -17 15 -65 -4 -72 -9 -3 -46 -6 -83 -6 -55 0 -71 4 -86 20 -17 18 -17 21
-1 45 15 23 22 25 89 25 43 0 78 -5 85 -12z m-9321 -123 c1 -1 -8 -32 -20 -70
l-21 -70 -7 40 c-3 22 -9 61 -12 87 l-6 47 32 -17 c17 -9 33 -17 34 -17z
m-3030 -60 c2 -6 -8 -22 -21 -36 -30 -33 -137 -48 -180 -25 -34 17 -22 27 64
55 67 21 131 24 137 6z m5098 -75 c3 -5 -1 -10 -10 -10 -9 0 -13 5 -10 10 3 6
8 10 10 10 2 0 7 -4 10 -10z m-18 -71 c26 -11 109 -43 183 -71 357 -131 382
-142 395 -162 7 -12 25 -72 40 -135 l27 -114 -30 -30 -30 -30 -21 41 c-12 23
-34 63 -51 88 -16 25 -32 60 -36 78 -10 46 -48 129 -67 145 -21 17 -21 9 -2
-28 20 -40 35 -110 24 -117 -5 -3 -2 -19 7 -37 13 -24 17 -60 16 -162 0 -183
-29 -301 -105 -434 l-31 -55 -17 100 c-26 157 -81 297 -181 462 -95 158 -167
256 -250 343 -27 27 -43 49 -36 49 6 0 18 7 27 15 21 19 86 74 88 75 1 0 23
-9 50 -21z m-130 -181 c32 -30 70 -70 84 -89 24 -32 113 -178 138 -226 10 -20
4 -25 -143 -96 -85 -41 -210 -106 -278 -145 -68 -38 -157 -86 -199 -106 -107
-51 -122 -48 -70 15 36 43 95 149 116 209 31 86 47 195 49 332 1 76 5 141 9
144 4 4 16 -1 27 -11 29 -26 61 -22 120 18 61 41 55 43 147 -45z m-197 38 c0
-2 -7 -6 -15 -10 -8 -3 -15 -1 -15 4 0 6 7 10 15 10 8 0 15 -2 15 -4z m-147
-33 c9 -47 -11 -244 -33 -322 -20 -72 -89 -235 -97 -228 -2 3 1 16 7 31 32 86
30 310 -6 462 -8 36 -12 69 -9 74 4 6 35 10 69 10 61 0 64 -1 69 -27z m3287
-30 c6 -7 29 -13 50 -13 43 0 45 -4 30 -44 -9 -26 -87 -116 -99 -116 -13 0
-33 62 -27 86 4 13 2 34 -4 45 -8 14 -8 30 1 56 11 34 13 35 25 17 7 -10 18
-25 24 -31z m-1886 -247 c27 -9 73 -16 102 -16 39 0 96 -15 211 -56 575 -203
781 -268 807 -256 37 16 171 15 185 -2 39 -47 152 -91 279 -107 83 -10 91 -10
130 10 23 12 48 33 56 49 14 24 15 -3 16 -286 l0 -312 -47 -33 c-26 -17 -88
-63 -137 -100 -50 -38 -144 -100 -208 -138 -146 -86 -158 -99 -157 -158 1 -25
4 -36 6 -24 2 13 15 31 29 42 22 17 27 18 52 5 16 -8 59 -14 107 -15 l80 -1
-55 -13 c-30 -8 -66 -13 -80 -13 -14 1 -34 -3 -45 -9 -22 -12 -139 -43 -161
-43 -8 0 -14 9 -14 20 0 48 -61 119 -119 142 -14 5 -64 18 -111 28 -243 52
-305 79 -514 225 -76 53 -193 129 -260 168 -128 76 -191 132 -290 255 l-59 73
13 70 c12 71 20 91 54 141 16 24 17 46 14 203 -2 111 1 176 7 178 6 2 21 0 35
-4 14 -4 47 -15 74 -23z m-396 -85 c8 -23 7 -32 -4 -42 -12 -10 -14 -5 -14 30
0 49 4 51 18 12z m143 -326 l-9 -40 -1 42 c-1 23 2 50 6 60 7 17 8 17 11 -2 1
-11 -1 -38 -7 -60z m2384 -21 c27 -8 64 -14 81 -14 31 0 32 -2 62 -88 33 -93
62 -161 86 -202 61 -102 166 -402 201 -574 13 -66 28 -122 33 -125 5 -3 12
-20 15 -37 l6 -31 -127 -26 c-156 -33 -494 -132 -544 -160 -36 -20 -38 -20
-57 -3 -20 18 -59 15 -72 -7 -4 -5 -29 26 -57 69 -28 44 -59 88 -69 99 -11 11
-40 48 -67 82 -26 35 -57 68 -69 75 -14 7 -61 11 -127 9 -70 -2 -102 1 -95 8
6 5 51 31 100 57 78 41 234 144 273 181 18 17 99 73 106 73 8 0 88 87 108 119
10 14 37 69 59 121 36 81 42 106 45 175 1 44 8 113 15 153 11 59 16 71 29 66
8 -4 37 -13 65 -20z m-2429 -22 c-16 -50 92 -217 243 -374 114 -120 179 -169
391 -294 283 -167 325 -187 409 -195 41 -4 82 -4 92 1 11 6 38 1 85 -18 l68
-27 -109 -7 c-61 -4 -124 -10 -142 -13 -67 -12 -132 -117 -97 -156 15 -16 13
-23 -14 -77 -17 -33 -28 -62 -25 -65 3 -3 -6 -30 -20 -59 -14 -30 -29 -66 -32
-81 -8 -29 -18 -32 -79 -17 -56 13 -386 -6 -536 -31 -110 -18 -405 -88 -629
-149 -41 -11 -75 -19 -75 -17 -21 45 -82 247 -97 317 -29 134 -39 459 -16 479
36 29 131 81 149 81 30 0 92 36 124 72 18 20 69 128 128 268 119 284 166 380
183 380 2 0 2 -8 -1 -18z m1930 -1114 c5 -7 -3 -5 -16 5 -14 9 -42 28 -62 42
-41 27 -41 27 -32 74 l6 31 48 -69 c27 -39 52 -76 56 -83z m-146 92 c0 -5 -5
-10 -11 -10 -5 0 -7 5 -4 10 3 6 8 10 11 10 2 0 4 -4 4 -10z m-2335 -450 c15
-47 34 -92 42 -102 15 -17 18 -15 -46 -33 -16 -5 -19 3 -25 77 -4 45 -11 87
-15 92 -5 6 -11 49 -14 96 l-6 85 18 -65 c10 -36 31 -103 46 -150z m2117 193
c10 -9 18 -22 18 -28 0 -16 -88 -58 -106 -51 -30 11 -28 39 4 68 37 32 58 35
84 11z m-62 -253 c-27 -21 -40 -25 -40 -12 0 9 53 40 60 35 3 -3 -6 -13 -20
-23z m558 -1277 c41 -38 107 -94 146 -126 81 -67 77 -60 146 -232 29 -71 94
-218 145 -325 51 -107 109 -229 128 -270 20 -41 86 -181 147 -310 174 -364
172 -360 160 -417 -14 -65 -91 -263 -101 -263 -5 0 -9 -9 -9 -20 0 -36 -62
-148 -85 -154 -12 -3 -34 -17 -51 -31 -16 -14 -33 -25 -37 -25 -7 0 -27 10
-175 92 -37 20 -116 61 -177 91 -60 29 -115 60 -122 68 -6 8 -27 59 -46 114
-36 101 -46 107 -26 15 6 -27 9 -55 7 -61 -2 -6 -62 42 -133 107 -72 64 -131
118 -133 119 -3 3 18 206 24 224 3 11 12 7 32 -12 16 -15 31 -27 35 -27 12 0
8 35 -5 50 -7 7 3 2 22 -13 30 -23 40 -42 70 -134 19 -59 40 -106 45 -103 22
11 1 104 -84 358 l-88 267 -7 245 c-3 135 -11 355 -17 490 l-12 244 29 21 c16
11 42 34 59 51 16 17 32 32 34 33 2 0 37 -29 79 -66z m-118 -1266 c23 -71 40
-130 38 -132 -2 -2 -26 17 -54 43 l-51 47 4 93 c3 52 9 90 13 85 4 -4 27 -66
50 -136z m-39 -104 c13 -16 12 -17 -3 -4 -10 7 -18 15 -18 17 0 8 8 3 21 -13z
m-1363 -1058 c16 -5 22 -14 22 -36 0 -38 35 -41 44 -5 5 20 14 26 51 32 25 3
55 4 67 1 13 -3 57 -9 98 -12 41 -4 147 -18 235 -31 287 -43 276 -40 378 -89
29 -13 76 -29 106 -36 40 -8 85 -33 177 -96 123 -84 255 -153 292 -153 10 0
48 -22 83 -48 89 -68 125 -85 168 -80 42 5 42 5 344 -232 183 -144 197 -157
197 -187 0 -17 -4 -34 -9 -37 -5 -3 -14 -26 -20 -52 -8 -32 -16 -44 -25 -41
-8 3 -22 0 -31 -7 -13 -9 -19 -37 -25 -122 -9 -121 -23 -166 -65 -204 -14 -14
-52 -70 -82 -125 -82 -146 -76 -139 -99 -113 -16 19 -16 21 -1 9 16 -13 17
-12 8 11 -5 14 -7 29 -4 32 4 3 -8 11 -25 17 -18 6 -29 16 -25 22 3 6 1 7 -5
3 -16 -10 -212 23 -239 40 -12 8 -28 14 -35 14 -8 0 -20 9 -27 19 -8 11 -24
18 -37 16 -13 -1 -21 1 -19 6 3 4 -8 10 -24 14 -16 3 -32 13 -35 21 -4 10 -13
13 -25 9 -13 -4 -23 0 -30 12 -7 12 -10 13 -11 4 0 -11 -3 -11 -15 -1 -9 7
-18 10 -22 6 -8 -8 29 -36 39 -30 5 3 8 1 8 -5 0 -6 7 -8 15 -5 8 4 15 1 15
-6 0 -6 4 -9 9 -5 6 3 14 -3 20 -12 6 -10 11 -15 11 -10 0 6 46 -19 60 -33 17
-17 69 -37 73 -27 2 6 9 7 16 3 10 -7 11 -10 1 -16 -9 -6 -7 -11 8 -19 11 -6
26 -17 34 -24 17 -17 77 -47 94 -47 7 0 11 -6 8 -14 -3 -7 2 -16 10 -19 33
-13 116 -82 116 -97 0 -9 -20 -47 -45 -84 -25 -38 -45 -72 -45 -77 0 -4 -3 -9
-8 -11 -4 -1 -23 -29 -41 -60 -19 -31 -39 -54 -44 -51 -6 3 -7 2 -4 -4 4 -6
-10 -33 -31 -61 -20 -28 -50 -69 -65 -92 -16 -22 -33 -37 -39 -34 -7 4 -8 2
-4 -4 7 -12 -141 -245 -183 -289 -12 -13 -19 -23 -16 -23 13 0 -76 -114 -90
-116 -8 -1 -12 2 -9 7 6 10 -40 2 -66 -11 -10 -6 -24 1 -43 22 -26 27 -33 29
-71 24 -37 -6 -45 -3 -70 23 -23 24 -34 28 -62 25 -27 -3 -39 2 -64 26 -16 16
-30 33 -30 38 0 5 -18 12 -40 16 -38 6 -68 35 -55 55 3 5 1 11 -4 13 -23 8
-244 474 -244 513 0 8 -3 15 -7 15 -4 0 -13 21 -20 48 -11 43 -94 317 -107
352 -3 8 -25 69 -48 135 -24 66 -54 145 -68 176 -47 104 -96 280 -147 527 -28
136 -67 312 -87 392 -19 80 -41 174 -49 209 -7 35 -16 73 -20 83 -6 21 -8 21
54 3z m2372 -935 c0 -5 -2 -10 -4 -10 -3 0 -8 5 -11 10 -3 6 -1 10 4 10 6 0
11 -4 11 -10z m-123 -432 c-3 -8 -6 -5 -6 6 -1 11 2 17 5 13 3 -3 4 -12 1 -19z
m-10 -70 c-3 -8 -6 -5 -6 6 -1 11 2 17 5 13 3 -3 4 -12 1 -19z m2191 -782 c-1
-26 -5 -32 -20 -28 -13 3 -22 -4 -31 -27 -8 -18 -29 -40 -48 -50 -19 -10 -34
-25 -34 -32 0 -19 -41 -59 -60 -59 -9 0 -20 -12 -26 -27 -8 -26 -47 -53 -74
-53 -5 0 -21 -21 -34 -46 -37 -70 -73 -102 -119 -110 -37 -6 -41 -10 -66 -65
-14 -32 -31 -59 -37 -59 -5 0 -7 -4 -4 -10 3 -5 0 -7 -9 -4 -16 6 -11 33 8 46
6 4 18 29 27 55 9 26 22 47 28 45 7 -1 11 13 11 37 0 37 17 101 30 111 16 13
50 70 50 84 0 9 4 16 8 16 5 0 15 12 23 28 12 23 91 137 105 152 3 2 51 5 108
7 57 1 114 7 127 12 37 15 40 13 37 -23z m-3628 -340 c0 -3 -4 -8 -10 -11 -5
-3 -10 -1 -10 4 0 6 5 11 10 11 6 0 10 -2 10 -4z m3040 -297 c0 -21 -1 -22
-24 -13 -10 4 -16 18 -16 36 0 23 -4 29 -16 24 -9 -3 -20 -6 -25 -6 -5 0 -9
-18 -9 -40 0 -22 -4 -40 -10 -40 -5 0 -8 -6 -6 -12 3 -7 7 -27 9 -43 5 -25 2
-31 -13 -31 -24 0 -36 46 -21 75 6 11 11 35 11 54 0 38 12 53 50 59 29 5 70
-32 70 -63z m-2731 -71 c-6 -12 -28 -44 -47 -71 -36 -50 -41 -50 -57 2 -5 16
-4 21 4 17 6 -4 9 -2 6 6 -7 19 6 34 45 51 52 23 63 22 49 -5z m2620 -90 c-9
-16 -14 -19 -17 -9 -2 7 2 17 9 22 20 13 21 11 8 -13z m-46 -27 c-2 -15 1 -20
9 -15 8 5 9 2 5 -10 -4 -10 -7 -22 -7 -28 0 -6 -6 -6 -15 2 -11 10 -20 5 -45
-23 -17 -20 -45 -39 -63 -43 -53 -11 -92 -38 -81 -56 3 -4 -7 -3 -22 2 -14 6
-49 12 -78 14 -28 2 -53 5 -56 5 -3 1 21 11 52 21 45 16 66 18 98 11 24 -5 40
-5 40 0 0 5 8 13 17 16 10 4 30 18 45 31 15 14 38 30 50 36 14 7 24 22 26 39
2 16 8 26 15 24 7 -2 11 -14 10 -26z m-107 -194 c-2 -7 -5 -4 -5 6 -1 9 -6 17
-12 17 -5 0 -7 5 -3 11 9 15 28 -16 20 -34z m-96 -89 c0 -4 -4 -8 -9 -8 -6 0
-12 4 -15 8 -3 5 1 9 9 9 8 0 15 -4 15 -9z"/>
<path d="M7960 16595 c0 -8 4 -15 10 -15 5 0 7 7 4 15 -4 8 -8 15 -10 15 -2 0
-4 -7 -4 -15z"/>
<path d="M6520 15960 c0 -5 7 -6 17 -3 12 5 14 3 8 -7 -6 -9 -4 -11 5 -5 7 4
16 2 21 -6 6 -10 11 -11 19 -3 9 9 3 14 -21 23 -39 14 -49 14 -49 1z"/>
<path d="M3072 14770 c-21 -35 -14 -83 23 -146 42 -71 111 -137 137 -131 9 3
19 0 22 -7 9 -22 181 187 172 210 -11 28 -36 13 -77 -45 -32 -46 -45 -58 -58
-51 -9 4 -37 16 -63 25 -57 20 -94 61 -109 121 -12 48 -27 55 -47 24z"/>
<path d="M3031 14704 c0 -11 3 -14 6 -6 3 7 2 16 -1 19 -3 4 -6 -2 -5 -13z"/>
<path d="M3209 13213 c-35 -24 -78 -64 -101 -95 -29 -41 -13 -34 39 17 25 25
57 54 72 64 32 24 24 37 -10 14z"/>
<path d="M1694 12508 c-55 -46 -172 -142 -259 -215 -88 -72 -205 -178 -260
-234 l-100 -103 95 85 c145 129 292 255 425 361 160 129 211 175 204 182 -3 3
-51 -31 -105 -76z"/>
<path d="M2985 12349 c-60 -12 -328 -92 -403 -121 -29 -11 -55 -25 -59 -31 -4
-7 0 -8 13 -2 10 4 111 32 224 62 187 49 221 55 395 67 105 8 192 15 195 16 3
1 -4 5 -15 10 -26 11 -286 10 -350 -1z"/>
<path d="M2478 12174 c-38 -20 -36 -28 2 -9 17 9 30 18 30 20 0 7 -1 6 -32
-11z"/>
<path d="M7870 14518 c0 -15 21 -68 47 -119 69 -135 238 -308 269 -276 3 3
-34 45 -83 94 -89 88 -178 207 -214 286 -17 38 -19 39 -19 15z"/>
<path d="M5615 10161 c-16 -10 -50 -40 -75 -67 l-45 -48 57 52 c31 29 63 52
70 52 8 0 23 7 34 15 29 22 -4 19 -41 -4z"/>
<path d="M11200 12409 c0 -13 366 -113 492 -134 83 -14 31 4 -162 55 -107 29
-225 60 -262 70 -38 10 -68 14 -68 9z"/>
<path d="M11475 11670 c33 -4 92 -8 130 -7 l70 0 -65 7 c-36 4 -94 8 -130 7
l-65 0 60 -7z"/>
<path d="M11761 11656 c2 -2 35 -6 73 -9 41 -3 63 -1 55 4 -13 8 -137 13 -128
5z"/>
<path d="M11385 11005 c207 -17 424 -22 427 -10 5 18 -76 24 -327 23 l-250 -1
150 -12z"/>
<path d="M8140 13021 c-121 -40 -326 -152 -427 -234 -35 -28 -63 -52 -63 -54
0 -6 13 3 99 65 86 61 240 141 381 197 52 21 97 39 99 41 11 10 -39 1 -89 -15z"/>
<path d="M5495 13020 c-3 -5 -16 -10 -28 -11 l-22 0 22 -9 c23 -9 61 -6 72 6
3 4 -2 4 -13 0 -14 -5 -17 -2 -12 9 6 17 -9 21 -19 5z"/>
<path d="M5625 12876 c-55 -19 -140 -51 -190 -70 -49 -20 -100 -36 -113 -36
-28 0 -60 -16 -177 -88 -159 -98 -276 -190 -301 -237 -11 -22 -11 -25 7 -27
75 -7 87 -3 194 55 179 97 498 278 528 299 15 11 33 21 40 22 36 6 86 29 91
41 4 12 -1 11 -36 -1 -46 -16 -61 -18 -54 -6 3 5 36 17 73 27 62 17 80 18 217
6 82 -6 151 -10 153 -7 8 8 -70 25 -163 36 -49 5 -107 12 -129 15 -30 4 -65
-3 -140 -29z"/>
<path d="M6211 11514 c-29 -24 -88 -57 -283 -157 -72 -36 -86 -40 -200 -48
-188 -14 -180 -12 -121 -32 28 -10 54 -25 57 -33 11 -28 94 -57 150 -52 83 7
230 99 339 212 80 84 106 120 94 132 -2 3 -19 -7 -36 -22z m-383 -251 c-16 -2
-40 -2 -55 0 -16 2 -3 4 27 4 30 0 43 -2 28 -4z"/>
<path d="M5468 11323 c7 -3 16 -2 19 1 4 3 -2 6 -13 5 -11 0 -14 -3 -6 -6z"/>
<path d="M7560 10958 c1 -31 7 -61 15 -72 14 -18 15 -16 15 30 0 27 -3 59 -6
72 -11 40 -24 23 -24 -30z"/>
<path d="M7650 10418 c-36 -11 -82 -28 -104 -36 -78 -32 -132 -111 -146 -215
-12 -83 6 -126 71 -168 96 -61 177 -73 294 -43 33 8 74 19 92 24 62 15 120 57
142 103 18 37 19 50 11 101 -10 61 -47 134 -89 177 -27 27 -111 62 -171 72
-22 4 -59 -2 -100 -15z m304 -277 c-7 -37 -47 -95 -58 -84 -3 4 -6 2 -6 -3 0
-6 -15 -8 -34 -6 -18 2 -44 -2 -56 -8 -29 -15 -284 -32 -288 -19 -2 5 -8 7
-12 4 -5 -3 -7 3 -5 15 2 11 -1 23 -7 26 -7 4 -8 2 -4 -4 4 -7 3 -12 -2 -12
-16 0 -22 28 -9 38 56 45 200 81 349 87 50 3 96 9 101 14 20 20 38 -9 31 -48z"/>
<path d="M3526 10720 c-16 -30 -35 -63 -44 -73 -8 -9 -12 -20 -9 -23 18 -19
91 91 85 128 -3 19 -9 14 -32 -32z"/>
<path d="M8361 5769 c0 -19 5 -43 10 -54 6 -13 7 -4 3 30 -8 60 -14 72 -13 24z"/>
<path d="M8603 5274 c-5 -10 -8 -64 -8 -119 0 -92 2 -104 28 -148 16 -27 36
-51 45 -54 9 -4 30 -17 45 -30 36 -29 89 -31 117 -3 17 17 19 29 14 102 -7
121 -13 148 -29 148 -12 0 -15 -15 -15 -67 0 -38 -5 -75 -10 -83 -13 -22 -134
-21 -156 1 -24 25 -39 145 -26 210 11 56 8 76 -5 43z"/>
<path d="M8920 5255 c0 -27 101 -345 147 -465 20 -52 44 -105 54 -118 10 -13
23 -39 29 -58 7 -20 14 -34 16 -32 5 5 -102 330 -172 523 -54 148 -74 188 -74
150z"/>
<path d="M7656 2482 c-3 -6 -1 -14 5 -17 15 -10 25 3 12 16 -7 7 -13 7 -17 1z"/>
<path d="M7720 2464 c17 -3 28 -10 25 -15 -4 -5 -1 -9 5 -9 27 0 1 25 -28 28
l-32 2 30 -6z"/>
<path d="M7840 2450 c-7 -5 -26 -7 -42 -5 -15 2 -28 2 -28 0 0 -11 60 -34 73
-29 8 3 18 0 22 -5 3 -6 11 -9 16 -6 5 4 9 1 9 -4 0 -6 6 -11 13 -11 8 0 19
-10 26 -22 6 -13 10 -16 7 -7 -4 16 2 17 75 11 11 -1 18 -6 14 -11 -7 -12 61
-35 81 -27 9 3 12 1 9 -4 -3 -6 -14 -10 -23 -11 -14 0 -13 -2 3 -8 11 -5 29
-5 40 -1 11 4 28 2 40 -6 11 -7 34 -14 50 -16 17 -2 41 -10 54 -17 15 -9 26
-10 33 -3 12 12 1 35 -13 26 -5 -3 -8 0 -7 7 2 6 -3 14 -11 17 -8 3 -11 0 -7
-7 4 -6 2 -11 -3 -11 -6 0 -11 4 -11 8 0 4 -12 9 -27 10 -15 1 -34 10 -43 19
-14 16 -14 16 5 2 18 -13 19 -13 6 3 -7 10 -17 16 -21 13 -5 -3 -11 -1 -14 4
-3 5 -15 7 -26 4 -11 -3 -30 4 -46 16 -14 11 -30 18 -35 16 -11 -8 -99 15 -99
26 0 4 -9 6 -21 4 -20 -4 -69 13 -79 27 -3 4 -12 3 -20 -2z"/>
<path d="M7968 2357 c12 -7 20 -15 18 -18 -3 -3 4 -5 14 -5 26 0 25 3 -10 21
-35 18 -55 20 -22 2z"/>
<path d="M8885 3800 c-8 -16 -15 -32 -15 -37 0 -10 25 27 33 50 10 27 -1 20
-18 -13z"/>
<path d="M8801 3605 c-27 -54 -101 -272 -101 -297 0 -31 17 -19 35 25 19 46
95 310 91 314 -1 2 -13 -17 -25 -42z"/>
<path d="M10172 2367 c-7 -8 -7 -18 -2 -27 8 -12 10 -10 10 8 0 15 4 21 12 16
7 -4 8 -3 4 4 -9 15 -11 15 -24 -1z"/>
<path d="M10118 2321 c-16 -14 -28 -33 -28 -41 0 -9 5 -7 16 8 8 12 21 19 27
16 7 -4 9 -4 5 1 -4 4 -3 14 4 22 20 25 3 21 -24 -6z"/>
<path d="M10057 2265 c3 -8 9 -12 14 -9 12 7 11 11 -5 17 -10 4 -13 1 -9 -8z"/>
<path d="M10016 2224 c-4 -9 -9 -14 -12 -11 -4 3 -27 -16 -52 -44 -25 -27 -51
-48 -58 -45 -7 3 -16 1 -19 -4 -3 -6 11 -9 34 -7 21 1 37 6 34 10 -3 5 18 30
47 57 28 26 47 51 42 54 -6 3 -13 -1 -16 -10z"/>
<path d="M11018 943 c7 -3 16 -2 19 1 4 3 -2 6 -13 5 -11 0 -14 -3 -6 -6z"/>
<path d="M9700 860 c-8 -5 -10 -10 -5 -10 6 0 17 5 25 10 8 5 11 10 5 10 -5 0
-17 -5 -25 -10z"/>
<path d="M9690 836 c0 -2 7 -7 16 -10 8 -3 12 -2 9 4 -6 10 -25 14 -25 6z"/>
</g>
</svg>
